<svg xmlns="http://www.w3.org/2000/svg" width="20" height="20" viewBox="0 0 20 20" fill="none">
  <g opacity="0.7">
    <path d="M11.7166 8.90829L9.99998 8.12496L11.7166 7.34163L12.5 5.62496L13.2833 7.34163L15 8.12496L13.2833 8.90829L12.5 10.625L11.7166 8.90829ZM3.33331 12.2916L4.11665 10.575L5.83331 9.79163L4.11665 9.00829L3.33331 7.29163L2.54998 9.00829L0.833313 9.79163L2.54998 10.575L3.33331 12.2916ZM7.08331 8.12496L7.99165 6.11663L9.99998 5.20829L7.99165 4.29996L7.08331 2.29163L6.17498 4.29996L4.16665 5.20829L6.17498 6.11663L7.08331 8.12496ZM3.74998 17.7083L8.74998 12.7L12.0833 16.0333L19.1666 8.06663L17.9916 6.89163L12.0833 13.5333L8.74998 10.2L2.49998 16.4583L3.74998 17.7083Z" fill="white"/>
  </g>
</svg>