<svg xmlns="http://www.w3.org/2000/svg" width="18" height="20" viewBox="0 0 18 20" fill="none">
  <path fill-rule="evenodd" clip-rule="evenodd" d="M6.02247 3.85802C5.38673 4.58281 5.02778 5.63362 5.02778 6.88337V8.47226C5.02778 9.26109 4.67276 9.91644 4.29642 10.4158C3.95224 10.8724 3.52362 11.2824 3.18703 11.6044C3.15876 11.6314 3.13114 11.6579 3.10428 11.6836C2.78941 11.9857 2.58333 12.3959 2.58333 12.8723C2.58333 13.3537 2.94417 13.6667 3.2963 13.6667H14.7037C15.0558 13.6667 15.4167 13.3537 15.4167 12.8723C15.4167 12.3959 15.2106 11.9857 14.8957 11.6836C14.8689 11.6579 14.8412 11.6314 14.813 11.6044C14.4764 11.2824 14.0478 10.8724 13.7036 10.4158C13.3272 9.91644 12.9722 9.26109 12.9722 8.47226V6.88337C12.9722 5.63362 12.6133 4.58281 11.9775 3.85802C11.357 3.15055 10.398 2.66671 9 2.66671C7.60203 2.66671 6.64302 3.15055 6.02247 3.85802ZM4.6442 2.6491C5.65328 1.49867 7.13871 0.833374 9 0.833374C10.8613 0.833374 12.3467 1.49867 13.3558 2.6491C14.3497 3.78221 14.8056 5.29806 14.8056 6.88337V8.47226C14.8056 8.69596 14.9059 8.96507 15.1676 9.31231C15.4185 9.64517 15.7442 9.95735 16.104 10.3022C16.1242 10.3216 16.1445 10.3411 16.1649 10.3607C16.7917 10.962 17.25 11.833 17.25 12.8723C17.25 14.2809 16.1516 15.5 14.7037 15.5H3.2963C1.84838 15.5 0.75 14.2809 0.75 12.8723C0.75 11.833 1.2083 10.962 1.83507 10.3607C1.8555 10.3411 1.87582 10.3216 1.89604 10.3022C2.25581 9.95735 2.58148 9.64517 2.83235 9.31231C3.09407 8.96507 3.19444 8.69596 3.19444 8.47226V6.88337C3.19444 5.29806 3.65031 3.78221 4.6442 2.6491Z" fill="#9F9F9F"/>
  <path fill-rule="evenodd" clip-rule="evenodd" d="M6.65608 16.5721C7.07655 16.2901 7.64599 16.4024 7.92796 16.8228C8.01906 16.9587 8.1606 17.0868 8.3509 17.1817C8.54143 17.2766 8.76571 17.3301 8.99997 17.3301C9.23424 17.3301 9.45852 17.2766 9.64904 17.1817C9.83935 17.0868 9.98088 16.9587 10.072 16.8228C10.354 16.4024 10.9234 16.2901 11.3439 16.5721C11.7643 16.854 11.8766 17.4235 11.5946 17.8439C11.3131 18.2637 10.9198 18.5968 10.4666 18.8226C10.0136 19.0483 9.50833 19.1635 8.99997 19.1635C8.49162 19.1635 7.98632 19.0483 7.53334 18.8226C7.08014 18.5968 6.68684 18.2637 6.40532 17.8439C6.12335 17.4235 6.23562 16.854 6.65608 16.5721Z" fill="#9F9F9F"/>
</svg>