<svg xmlns="http://www.w3.org/2000/svg" width="16" height="16" viewBox="0 0 16 16" fill="none">
  <path d="M1.14258 3.99988H14.8569H1.14258Z" fill="#2E9844"/>
  <path d="M1.14258 3.99988H14.8569" stroke="#9F9F9F" stroke-width="1.71429" stroke-linecap="round" stroke-linejoin="round"/>
  <path d="M2.85681 3.99988H13.1425V14.2856C13.1425 14.5887 13.0221 14.8794 12.8078 15.0937C12.5935 15.308 12.3028 15.4284 11.9997 15.4284H3.99967C3.69656 15.4284 3.40587 15.308 3.19154 15.0937C2.97722 14.8794 2.85681 14.5887 2.85681 14.2856V3.99988Z" stroke="#9F9F9F" stroke-width="1.71429" stroke-linecap="round" stroke-linejoin="round"/>
  <path d="M5.14258 3.99986V3.42843C5.14258 2.67067 5.44359 1.94394 5.97941 1.40812C6.51523 0.872309 7.24196 0.571289 7.99972 0.571289C8.75748 0.571289 9.48421 0.872309 10.02 1.40812C10.5558 1.94394 10.8569 2.67067 10.8569 3.42843V3.99986" stroke="#9F9F9F" stroke-width="1.71429" stroke-linecap="round" stroke-linejoin="round"/>
  <path d="M6.28516 7.43005V12.0032" stroke="#9F9F9F" stroke-width="1.71429" stroke-linecap="round" stroke-linejoin="round"/>
  <path d="M9.71423 7.43005V12.0032" stroke="#9F9F9F" stroke-width="1.71429" stroke-linecap="round" stroke-linejoin="round"/>
</svg>