<svg xmlns="http://www.w3.org/2000/svg" width="14" height="15" viewBox="0 0 14 15" fill="none">
  <path d="M6.50002 4.58333V5.08333H7.00002H12.3334V12.25H1.66669V2.75H6.50002V4.58333ZM3.50002 12.0833H4.00002V11.5833V10.4167V9.91667H3.50002H2.33335H1.83335V10.4167V11.5833V12.0833H2.33335H3.50002ZM3.50002 9.75H4.00002V9.25V8.08333V7.58333H3.50002H2.33335H1.83335V8.08333V9.25V9.75H2.33335H3.50002ZM3.50002 7.41667H4.00002V6.91667V5.75V5.25H3.50002H2.33335H1.83335V5.75V6.91667V7.41667H2.33335H3.50002ZM3.50002 5.08333H4.00002V4.58333V3.41667V2.91667H3.50002H2.33335H1.83335V3.41667V4.58333V5.08333H2.33335H3.50002ZM5.83335 12.0833H6.33335V11.5833V10.4167V9.91667H5.83335H4.66669H4.16669V10.4167V11.5833V12.0833H4.66669H5.83335ZM5.83335 9.75H6.33335V9.25V8.08333V7.58333H5.83335H4.66669H4.16669V8.08333V9.25V9.75H4.66669H5.83335ZM5.83335 7.41667H6.33335V6.91667V5.75V5.25H5.83335H4.66669H4.16669V5.75V6.91667V7.41667H4.66669H5.83335ZM5.83335 5.08333H6.33335V4.58333V3.41667V2.91667H5.83335H4.66669H4.16669V3.41667V4.58333V5.08333H4.66669H5.83335ZM11.6667 12.0833H12.1667V11.5833V5.75V5.25H11.6667H7.00002H6.50002V5.75V6.91667V7.41667H7.00002H7.66669V7.58333H7.00002H6.50002V8.08333V9.25V9.75H7.00002H7.66669V9.91667H7.00002H6.50002V10.4167V11.5833V12.0833H7.00002H11.6667ZM9.83335 7.58333V7.41667H10V7.58333H9.83335ZM9.83335 9.91667V9.75H10V9.91667H9.83335Z" fill="black" stroke="#9F9F9F"/>
</svg>