<svg xmlns="http://www.w3.org/2000/svg" width="20" height="20" viewBox="0 0 20 20" fill="none">
  <path d="M10 1.66663C5.40002 1.66663 1.66669 5.39996 1.66669 9.99996C1.66669 14.6 5.40002 18.3333 10 18.3333C14.6 18.3333 18.3334 14.6 18.3334 9.99996C18.3334 5.39996 14.6 1.66663 10 1.66663ZM16.6084 9.16663H10.8334V3.39163C13.8417 3.76663 16.2334 6.15829 16.6084 9.16663ZM3.33335 9.99996C3.33335 6.60829 5.88335 3.79996 9.16669 3.39163V16.6083C5.88335 16.2 3.33335 13.3916 3.33335 9.99996ZM10.8334 16.6083V10.8333H16.6084C16.2334 13.8416 13.8417 16.2333 10.8334 16.6083Z" fill="#2E9844"/>
</svg>