<svg xmlns="http://www.w3.org/2000/svg" width="16" height="16" viewBox="0 0 16 16" fill="none">
  <path d="M10.5033 9.50338H9.97659L9.78992 9.32338C10.4433 8.56338 10.8366 7.57671 10.8366 6.50338C10.8366 4.11004 8.89659 2.17004 6.50326 2.17004C4.10992 2.17004 2.16992 4.11004 2.16992 6.50338C2.16992 8.89671 4.10992 10.8367 6.50326 10.8367C7.57659 10.8367 8.56326 10.4434 9.32326 9.79004L9.50326 9.97671V10.5034L12.8366 13.83L13.8299 12.8367L10.5033 9.50338ZM6.50326 9.50338C4.84326 9.50338 3.50326 8.16338 3.50326 6.50338C3.50326 4.84338 4.84326 3.50338 6.50326 3.50338C8.16326 3.50338 9.50326 4.84338 9.50326 6.50338C9.50326 8.16338 8.16326 9.50338 6.50326 9.50338Z" fill="#C2C2C2"/>
</svg>