<svg xmlns="http://www.w3.org/2000/svg" width="16" height="16" viewBox="0 0 16 16" fill="none">
  <path d="M10.4418 11.6921L10.7576 11.8759L11.0286 11.6309C11.2929 11.392 11.6295 11.2467 12 11.2467C12.7972 11.2467 13.4467 11.8961 13.4467 12.6933C13.4467 13.4905 12.7972 14.14 12 14.14C11.2028 14.14 10.5533 13.4905 10.5533 12.6933C10.5533 12.5914 10.5673 12.4839 10.5931 12.3758L10.6789 12.0152L10.3589 11.8283L5.61224 9.05494L5.29224 8.86797L5.0203 9.11977C4.74562 9.3741 4.39136 9.52665 4 9.52665C3.16948 9.52665 2.5 8.85718 2.5 8.02665C2.5 7.19613 3.16948 6.52665 4 6.52665C4.39136 6.52665 4.74562 6.67921 5.0203 6.93353L5.29197 7.18508L5.61182 6.99861L10.3118 4.25861L10.6258 4.07557L10.5486 3.72044C10.5176 3.57804 10.5 3.46609 10.5 3.35999C10.5 2.52946 11.1695 1.85999 12 1.85999C12.8305 1.85999 13.5 2.52946 13.5 3.35999C13.5 4.19051 12.8305 4.85999 12 4.85999C11.6086 4.85999 11.2544 4.70743 10.9797 4.45311L10.708 4.20156L10.3882 4.38803L5.68818 7.12803L5.37421 7.31107L5.45141 7.6662C5.48237 7.8086 5.5 7.92055 5.5 8.02665C5.5 8.13275 5.48237 8.24471 5.45141 8.3871L5.37415 8.7425L5.68848 8.92545L10.4418 11.6921ZM13.1667 3.35999C13.1667 2.71718 12.6428 2.19332 12 2.19332C11.3572 2.19332 10.8333 2.71718 10.8333 3.35999C10.8333 4.00279 11.3572 4.52665 12 4.52665C12.6428 4.52665 13.1667 4.00279 13.1667 3.35999ZM2.83333 8.02665C2.83333 8.66946 3.35719 9.19332 4 9.19332C4.64281 9.19332 5.16667 8.66946 5.16667 8.02665C5.16667 7.38384 4.64281 6.85999 4 6.85999C3.35719 6.85999 2.83333 7.38384 2.83333 8.02665ZM10.8333 12.7067C10.8333 13.3495 11.3572 13.8733 12 13.8733C12.6428 13.8733 13.1667 13.3495 13.1667 12.7067C13.1667 12.0638 12.6428 11.54 12 11.54C11.3572 11.54 10.8333 12.0638 10.8333 12.7067Z" stroke="#9F9F9F"/>
</svg>