<svg xmlns="http://www.w3.org/2000/svg" width="16" height="17" viewBox="0 0 16 17" fill="none">
  <path d="M12.7133 3.78671L11.7733 4.72671C12.7333 5.69337 13.3333 7.02671 13.3333 8.50004C13.3333 11.4467 10.9466 13.8334 7.99998 13.8334C5.05331 13.8334 2.66665 11.4467 2.66665 8.50004C2.66665 5.78004 4.69998 3.54004 7.33331 3.21337V4.56004C5.43998 4.88004 3.99998 6.52004 3.99998 8.50004C3.99998 10.7067 5.79331 12.5 7.99998 12.5C10.2066 12.5 12 10.7067 12 8.50004C12 7.39337 11.5533 6.39337 10.8266 5.67337L9.88665 6.61337C10.3666 7.10004 10.6666 7.76671 10.6666 8.50004C10.6666 9.97337 9.47331 11.1667 7.99998 11.1667C6.52665 11.1667 5.33331 9.97337 5.33331 8.50004C5.33331 7.26004 6.18665 6.22671 7.33331 5.92671V7.35337C6.93331 7.58671 6.66665 8.00671 6.66665 8.50004C6.66665 9.23337 7.26665 9.83337 7.99998 9.83337C8.73331 9.83337 9.33331 9.23337 9.33331 8.50004C9.33331 8.00671 9.06665 7.58004 8.66665 7.35337V1.83337H7.99998C4.31998 1.83337 1.33331 4.82004 1.33331 8.50004C1.33331 12.18 4.31998 15.1667 7.99998 15.1667C11.68 15.1667 14.6666 12.18 14.6666 8.50004C14.6666 6.66004 13.92 4.99337 12.7133 3.78671Z" fill="#181818"/>
</svg>