<svg xmlns="http://www.w3.org/2000/svg" width="20" height="20" viewBox="0 0 20 20" fill="none">
  <g opacity="0.7">
    <path d="M15.8917 4.10829L14.7167 5.28329C15.9167 6.49163 16.6667 8.15829 16.6667 9.99996C16.6667 13.6833 13.6834 16.6666 10 16.6666C6.31669 16.6666 3.33335 13.6833 3.33335 9.99996C3.33335 6.59996 5.87502 3.79996 9.16669 3.39163V5.07496C6.80002 5.47496 5.00002 7.52496 5.00002 9.99996C5.00002 12.7583 7.24169 15 10 15C12.7584 15 15 12.7583 15 9.99996C15 8.61663 14.4417 7.36663 13.5334 6.46663L12.3584 7.64163C12.9584 8.24996 13.3334 9.08329 13.3334 9.99996C13.3334 11.8416 11.8417 13.3333 10 13.3333C8.15835 13.3333 6.66669 11.8416 6.66669 9.99996C6.66669 8.44996 7.73335 7.15829 9.16669 6.78329V8.56663C8.66669 8.85829 8.33335 9.38329 8.33335 9.99996C8.33335 10.9166 9.08335 11.6666 10 11.6666C10.9167 11.6666 11.6667 10.9166 11.6667 9.99996C11.6667 9.38329 11.3334 8.84996 10.8334 8.56663V1.66663H10C5.40002 1.66663 1.66669 5.39996 1.66669 9.99996C1.66669 14.6 5.40002 18.3333 10 18.3333C14.6 18.3333 18.3334 14.6 18.3334 9.99996C18.3334 7.69996 17.4 5.61663 15.8917 4.10829Z" fill="white"/>
  </g>
</svg>