<svg xmlns="http://www.w3.org/2000/svg" width="20" height="20" viewBox="0 0 20 20" fill="none">
  <g opacity="0.7">
    <path d="M10.425 8.32496C10.425 6.94996 9.30002 5.82496 7.92502 5.82496C6.55002 5.82496 5.42502 6.94996 5.42502 8.32496C5.42502 9.69996 6.55002 10.825 7.92502 10.825C9.30002 10.825 10.425 9.69996 10.425 8.32496ZM7.92502 9.15829C7.46669 9.15829 7.09169 8.78329 7.09169 8.32496C7.09169 7.86663 7.46669 7.49163 7.92502 7.49163C8.38335 7.49163 8.75835 7.86663 8.75835 8.32496C8.75835 8.78329 8.38335 9.15829 7.92502 9.15829ZM13.3417 10.825C14.2667 10.825 15.0084 10.0833 15.0084 9.15829C15.0084 8.23329 14.2667 7.49163 13.3417 7.49163C12.4167 7.49163 11.6667 8.23329 11.675 9.15829C11.675 10.0833 12.4167 10.825 13.3417 10.825ZM10 1.66663C5.40002 1.66663 1.66669 5.39996 1.66669 9.99996C1.66669 14.6 5.40002 18.3333 10 18.3333C14.6 18.3333 18.3334 14.6 18.3334 9.99996C18.3334 5.39996 14.6 1.66663 10 1.66663ZM4.87502 14.2583C5.44169 13.8083 6.76669 13.3333 7.92502 13.3333C7.98335 13.3333 8.05002 13.3416 8.11669 13.3416C8.31669 12.8083 8.67502 12.2666 9.20002 11.7916C8.73335 11.7083 8.29169 11.6583 7.92502 11.6583C6.84169 11.6583 5.10002 12.0333 3.98335 12.85C3.56669 11.9833 3.33335 11.0166 3.33335 9.99163C3.33335 6.31663 6.32502 3.32496 10 3.32496C13.675 3.32496 16.6667 6.31663 16.6667 9.99163C16.6667 10.9916 16.4417 11.9416 16.0417 12.8C15.2084 12.3083 14.075 12.075 13.3417 12.075C12.075 12.075 9.59169 12.75 9.59169 14.325V16.6416C7.70002 16.5333 6.01669 15.6333 4.87502 14.2583Z" fill="white"/>
  </g>
</svg>